<svg xmlns="http://www.w3.org/2000/svg" xmlns:xlink="http://www.w3.org/1999/xlink" viewBox="0 0 361 479" width="361" height="479" preserveAspectRatio="xMidYMid meet" style="width: 100%; height: 100%; transform: translate3d(0px, 0px, 0px); content-visibility: visible;"><defs><clipPath id="__lottie_element_105"><rect width="361" height="479" x="0" y="0"></rect></clipPath></defs><g clip-path="url(#__lottie_element_105)"><g transform="matrix(3.9983012676239014,-0.11656619608402252,0.11656619608402252,3.9983012676239014,58.20185089111328,85.1995849609375)" opacity="1" style="display: block;"><g opacity="1" transform="matrix(1,0,0,1,29.086999893188477,39.10300064086914)"><path fill="rgb(255,255,255)" fill-opacity="1" d=" M7.485158920288086,-29.587669372558594 C8.055164337158203,-30.850379943847656 8.502813339233398,-31.83728790283203 9.170598983764648,-32.92870330810547 C11.300392150878906,-36.41075134277344 15.594996452331543,-38.33826446533203 20.35680389404297,-36.44871139526367 C24.254905700683594,-34.902137756347656 26.568397521972656,-30.55849838256836 25.715280532836914,-26.304834365844727 C24.867055892944336,-22.070085525512695 23.653766632080078,-17.403669357299805 22.512662887573242,-13.117985725402832 C22.512662887573242,-13.117985725402832 22.32267951965332,-12.404462814331055 22.32267951965332,-12.404462814331055 C22.32267951965332,-12.404462814331055 22.260761260986328,-12.173955917358398 22.260761260986328,-12.173955917358398 C22.13606071472168,-11.709741592407227 22.011547088623047,-11.245434761047363 21.889692306518555,-10.791760444641113 C21.889692306518555,-10.791760444641113 21.829256057739258,-10.566758155822754 21.829256057739258,-10.566758155822754 C21.829256057739258,-10.566758155822754 21.995147705078125,-10.403179168701172 21.995147705078125,-10.403179168701172 C22.08745574951172,-10.31215763092041 22.169715881347656,-10.227009773254395 22.249935150146484,-10.143973350524902 C22.410127639770508,-9.978155136108398 22.567119598388672,-9.81564998626709 22.742441177368164,-9.67660140991211 C22.742441177368164,-9.67660140991211 22.742549896240234,-9.676514625549316 22.742549896240234,-9.676514625549316 C26.696971893310547,-6.544745922088623 28.424135208129883,-2.5626509189605713 27.663625717163086,2.394340991973877 C26.772266387939453,8.20651912689209 24.57640266418457,13.357192039489746 20.082923889160156,17.33344268798828 C19.04820442199707,18.249536514282227 17.945371627807617,19.090194702148438 16.821006774902344,19.91409683227539 C16.821006774902344,19.91409683227539 15.875041961669922,20.607275009155273 15.875041961669922,20.607275009155273 C15.875041961669922,20.607275009155273 15.519859313964844,20.911659240722656 15.519859313964844,20.911659240722656 C13.805904388427734,22.380489349365234 12.589505195617676,24.221973419189453 11.882344245910645,26.391704559326172 C11.882344245910645,26.391704559326172 11.324817657470703,28.102323532104492 11.324817657470703,28.102323532104492 C11.324817657470703,28.102323532104492 11.552886009216309,27.44439125061035 11.552886009216309,27.44439125061035 C10.511574745178223,30.448368072509766 8.462080955505371,32.435428619384766 5.3976898193359375,33.509517669677734 C5.3976898193359375,33.509517669677734 5.397552967071533,33.50956344604492 5.397552967071533,33.50956344604492 C5.397552967071533,33.50956344604492 5.397416591644287,33.509613037109375 5.397416591644287,33.509613037109375 C4.642563343048096,33.77480697631836 4.230483531951904,34.210662841796875 3.9506242275238037,34.76127243041992 C3.9506242275238037,34.76127243041992 4.1123528480529785,34.443077087402344 4.1123528480529785,34.443077087402344 C4.1123528480529785,34.443077087402344 3.477433919906616,35.948516845703125 3.477433919906616,35.948516845703125 C3.22808837890625,36.53973388671875 2.9162254333496094,37.093955993652344 2.5079658031463623,37.53989791870117 C2.5079658031463623,37.53989791870117 2.5078744888305664,37.540000915527344 2.5078744888305664,37.540000915527344 C2.5078744888305664,37.540000915527344 2.5077831745147705,37.54010009765625 2.5077831745147705,37.54010009765625 C1.8650996685028076,38.24306106567383 1.0532569885253906,38.44010925292969 0.04421429708600044,38.167816162109375 C0.04421429708600044,38.167816162109375 0.04412476345896721,38.167789459228516 0.04412476345896721,38.167789459228516 C0.04412476345896721,38.167789459228516 0.04403521865606308,38.16776657104492 0.04403521865606308,38.16776657104492 C-2.665684461593628,37.43788146972656 -5.376175880432129,36.7108268737793 -8.086406707763672,35.98384094238281 C-12.630242347717285,34.7650146484375 -17.1733455657959,33.54638671875 -21.71233558654785,32.314552307128906 C-21.71233558654785,32.314552307128906 -22.767011642456055,32.028324127197266 -22.767011642456055,32.028324127197266 C-22.767011642456055,32.028324127197266 -22.91095733642578,31.97527313232422 -22.91095733642578,31.97527313232422 C-24.140609741210938,31.522092819213867 -24.797924041748047,30.454015731811523 -24.645116806030273,29.069358825683594 C-24.645116806030273,29.069358825683594 -24.79131507873535,30.394123077392578 -24.79131507873535,30.394123077392578 C-24.79131507873535,30.394123077392578 -24.429813385009766,27.982175827026367 -24.429813385009766,27.982175827026367 C-24.289308547973633,27.044723510742188 -24.530200958251953,26.298776626586914 -25.101802825927734,25.553403854370117 C-25.101802825927734,25.553403854370117 -26.996427536010742,23.082801818847656 -26.996427536010742,23.082801818847656 C-26.996427536010742,23.082801818847656 -26.126832962036133,24.28744125366211 -26.126832962036133,24.28744125366211 C-27.751062393188477,22.037412643432617 -28.32050323486328,19.490922927856445 -27.60919761657715,16.677030563354492 C-26.547794342041016,12.47426986694336 -26.268781661987305,8.205160140991211 -25.991111755371094,3.9566190242767334 C-25.963518142700195,3.534414052963257 -25.935937881469727,3.112412214279175 -25.9075870513916,2.6903247833251953 C-25.9075870513916,2.6903247833251953 -25.885896682739258,2.3673863410949707 -25.885896682739258,2.3673863410949707 C-25.885896682739258,2.3673863410949707 -25.865224838256836,2.1022443771362305 -25.865224838256836,2.1022443771362305 C-25.668861389160156,-0.41649335622787476 -25.27853012084961,-2.931870937347412 -24.686174392700195,-5.385115146636963 C-23.489171981811523,-10.343059539794922 -22.12811279296875,-15.2621431350708 -20.765825271606445,-20.1856689453125 C-20.66301918029785,-20.55722999572754 -20.560205459594727,-20.928813934326172 -20.45746612548828,-21.300403594970703 C-19.19121742248535,-25.882923126220703 -15.46453857421875,-28.543582916259766 -10.878625869750977,-28.270118713378906 C-10.878625869750977,-28.270118713378906 -11.133347511291504,-28.285308837890625 -11.133347511291504,-28.285308837890625 C-11.133347511291504,-28.285308837890625 -9.795177459716797,-28.157466888427734 -9.795177459716797,-28.157466888427734 C-9.026410102844238,-28.08402442932129 -8.378437042236328,-28.299013137817383 -7.760063171386719,-28.73910903930664 C-7.760063171386719,-28.73910903930664 -7.759977340698242,-28.73917007446289 -7.759977340698242,-28.73917007446289 C-7.759977340698242,-28.73917007446289 -7.759891986846924,-28.73923110961914 -7.759891986846924,-28.73923110961914 C-4.634941577911377,-30.965734481811523 -1.4973572492599487,-31.29490089416504 1.858185052871704,-29.70213508605957 C1.858185052871704,-29.70213508605957 1.2108038663864136,-30.00942611694336 1.2108038663864136,-30.00942611694336 C1.2108038663864136,-30.00942611694336 2.6019558906555176,-29.32171058654785 2.6019558906555176,-29.32171058654785 C2.9611823558807373,-29.144126892089844 3.450654983520508,-29.036453247070312 3.8431663513183594,-29.066139221191406 C3.8431663513183594,-29.066139221191406 3.8432772159576416,-29.066146850585938 3.8432772159576416,-29.066146850585938 C3.8432772159576416,-29.066146850585938 3.8433878421783447,-29.0661563873291 3.8433878421783447,-29.0661563873291 C4.167482852935791,-29.090848922729492 4.481495380401611,-29.110010147094727 4.793431758880615,-29.129043579101562 C5.582930564880371,-29.177217483520508 6.359522342681885,-29.2246036529541 7.184145450592041,-29.35732650756836 C7.184145450592041,-29.35732650756836 7.396615982055664,-29.391525268554688 7.396615982055664,-29.391525268554688 C7.396615982055664,-29.391525268554688 7.485158920288086,-29.587669372558594 7.485158920288086,-29.587669372558594z M4.489297389984131,-2.1406123638153076 C4.746957302093506,-2.052292585372925 4.955771446228027,-1.9777109622955322 5.136741638183594,-1.913074254989624 C5.4470133781433105,-1.8022550344467163 5.682634353637695,-1.718098759651184 5.923388481140137,-1.6521941423416138 C5.923388481140137,-1.6521941423416138 5.923719882965088,-1.6521034240722656 5.923719882965088,-1.6521034240722656 C5.923719882965088,-1.6521034240722656 5.924051761627197,-1.6520131826400757 5.924051761627197,-1.6520131826400757 C7.527744293212891,-1.215976595878601 9.131924629211426,-0.7843332290649414 10.73574447631836,-0.3527868092060089 C11.25481128692627,-0.2131192982196808 11.77384090423584,-0.07346194237470627 12.29286003112793,0.0663461908698082 C12.29286003112793,0.0663461908698082 12.7818603515625,0.19806791841983795 12.7818603515625,0.19806791841983795 C12.7818603515625,0.19806791841983795 12.844983100891113,0.21521805226802826 12.844983100891113,0.21521805226802826 C12.879196166992188,0.22451357543468475 12.913592338562012,0.23382551968097687 12.94763469696045,0.24304142594337463 C13.091992378234863,0.2821216881275177 13.233141899108887,0.32033324241638184 13.371971130371094,0.3603411614894867 C13.371971130371094,0.3603411614894867 14.075273513793945,0.5630195736885071 14.075273513793945,0.5630195736885071 C14.075273513793945,0.5630195736885071 14.185675621032715,0.7003133296966553 14.185675621032715,0.7003133296966553 C14.216509819030762,0.7386571168899536 14.230001449584961,0.7805361151695251 14.227533340454102,0.8290188312530518 C14.227533340454102,0.8290188312530518 14.217385292053223,1.028326392173767 14.217385292053223,1.028326392173767 C14.217385292053223,1.028326392173767 13.981154441833496,1.1474533081054688 13.981154441833496,1.1474533081054688 C13.88183879852295,1.1975364685058594 13.749481201171875,1.2501800060272217 13.590096473693848,1.3135730028152466 C13.55632209777832,1.3270063400268555 13.52174186706543,1.3407602310180664 13.487249374389648,1.354723334312439 C13.487249374389648,1.354723334312439 13.422477722167969,1.380943775177002 13.422477722167969,1.380943775177002 C13.422477722167969,1.380943775177002 13.41963005065918,1.3776698112487793 13.41963005065918,1.3776698112487793 C13.41447925567627,1.3717478513717651 13.388155937194824,1.3633300065994263 13.32645034790039,1.3435968160629272 C13.272008895874023,1.326187252998352 13.197477340698242,1.3023524284362793 13.124502182006836,1.2872059345245361 C13.124502182006836,1.2872059345245361 12.808176040649414,1.221549153327942 12.808176040649414,1.221549153327942 C12.808176040649414,1.221549153327942 12.452025413513184,1.1672184467315674 12.452025413513184,1.1672184467315674 C6.027367115020752,0.1871364712715149 0.6693846583366394,4.134369850158691 -1.1821134090423584,8.76071834564209 C-1.1821134090423584,8.76071834564209 -1.3568470478057861,9.197325706481934 -1.3568470478057861,9.197325706481934 C-1.3568470478057861,9.197325706481934 -1.540798544883728,9.815508842468262 -1.540798544883728,9.815508842468262 C-1.7175588607788086,10.409525871276855 -1.8604676723480225,10.761462211608887 -2.4091343879699707,10.671294212341309 C-2.4091343879699707,10.671294212341309 -2.409168004989624,10.67128849029541 -2.409168004989624,10.67128849029541 C-2.579277276992798,10.643348693847656 -2.6814486980438232,10.53048038482666 -2.6996781826019287,10.309268951416016 C-2.6996781826019287,10.309268951416016 -2.7337546348571777,9.895758628845215 -2.7337546348571777,9.895758628845215 C-2.7337546348571777,9.895758628845215 -2.467562675476074,9.250445365905762 -2.467562675476074,9.250445365905762 C-2.4598283767700195,9.231695175170898 -2.4508602619171143,9.209572792053223 -2.4412760734558105,9.18366527557373 C-2.4412760734558105,9.18366527557373 -2.321878433227539,8.860919952392578 -2.321878433227539,8.860919952392578 C-2.321878433227539,8.860919952392578 -2.1328537464141846,8.42580509185791 -2.1328537464141846,8.42580509185791 C-0.5212143063545227,4.715980052947998 2.1442039012908936,2.1727781295776367 6.036530017852783,0.7476135492324829 C6.036530017852783,0.7476135492324829 6.036765098571777,0.7475274801254272 6.036765098571777,0.7475274801254272 C6.036765098571777,0.7475274801254272 6.0370001792907715,0.7474410533905029 6.0370001792907715,0.7474410533905029 C6.177821636199951,0.6956796646118164 6.312182426452637,0.6273801922798157 6.446232795715332,0.5592383146286011 C6.521220684051514,0.5211196541786194 6.59817361831665,0.48200228810310364 6.686136245727539,0.44006654620170593 C6.686136245727539,0.44006654620170593 7.496603012084961,0.05368119850754738 7.496603012084961,0.05368119850754738 C7.496603012084961,0.05368119850754738 6.667313098907471,-0.29045242071151733 6.667313098907471,-0.29045242071151733 C6.171738624572754,-0.4961029291152954 5.672547817230225,-0.6915123462677002 5.179154872894287,-0.8846525549888611 C2.215644598007202,-2.044726610183716 -0.5333072543144226,-3.1208112239837646 -2.0647823810577393,-6.118958473205566 C-2.0647823810577393,-6.118958473205566 -2.247372627258301,-6.476412773132324 -2.247372627258301,-6.476412773132324 C-2.247372627258301,-6.476412773132324 -2.6041922569274902,-6.2925848960876465 -2.6041922569274902,-6.2925848960876465 C-5.137513637542725,-4.987454414367676 -7.2124924659729,-5.502866744995117 -9.18887996673584,-7.600316524505615 C-9.18887996673584,-7.600316524505615 -9.53050422668457,-7.962866306304932 -9.53050422668457,-7.962866306304932 C-9.53050422668457,-7.962866306304932 -9.810715675354004,-7.551004409790039 -9.810715675354004,-7.551004409790039 C-10.718826293945312,-6.21624231338501 -11.720351219177246,-5.403632640838623 -13.10118293762207,-5.114931106567383 C-13.10118293762207,-5.114931106567383 -13.7471342086792,-4.97987699508667 -13.7471342086792,-4.97987699508667 C-13.7471342086792,-4.97987699508667 -14.330531120300293,-5.009718418121338 -14.330531120300293,-5.009718418121338 C-15.717155456542969,-5.080645561218262 -16.807254791259766,-5.849608421325684 -18.00872230529785,-6.89301061630249 C-18.00872230529785,-6.89301061630249 -18.47319793701172,-7.296380519866943 -18.47319793701172,-7.296380519866943 C-18.47319793701172,-7.296380519866943 -18.653444290161133,-6.7081990242004395 -18.653444290161133,-6.7081990242004395 C-19.69984245300293,-3.2935869693756104 -20.39684295654297,0.05323972553014755 -20.492841720581055,3.4697649478912354 C-20.492841720581055,3.4697649478912354 -20.492843627929688,3.4698033332824707 -20.492843627929688,3.4698033332824707 C-20.492843627929688,3.4698033332824707 -20.49284553527832,3.469841957092285 -20.49284553527832,3.469841957092285 C-20.625558853149414,8.225650787353516 -20.99502182006836,12.90087890625 -22.181365966796875,17.508258819580078 C-22.77056884765625,19.79680061340332 -21.83323097229004,21.66551399230957 -19.86924934387207,22.599437713623047 C-19.86924934387207,22.599437713623047 -19.42717742919922,22.809654235839844 -19.42717742919922,22.809654235839844 C-19.42717742919922,22.809654235839844 -18.788379669189453,22.992374420166016 -18.788379669189453,22.992374420166016 C-18.372791290283203,23.111248016357422 -17.954965591430664,23.22186279296875 -17.540884017944336,23.331483840942383 C-17.345304489135742,23.38326072692871 -17.15056037902832,23.434816360473633 -16.956071853637695,23.487224578857422 C-16.956071853637695,23.487224578857422 -16.955936431884766,23.487260818481445 -16.955936431884766,23.487260818481445 C-15.786566734313965,23.801485061645508 -14.617640495300293,24.114057540893555 -13.448933601379395,24.42839241027832 C-13.448933601379395,24.42839241027832 -12.655790328979492,24.641714096069336 -12.655790328979492,24.641714096069336 C-12.655790328979492,24.641714096069336 -12.422072410583496,24.70965576171875 -12.422072410583496,24.70965576171875 C-11.879511833190918,24.867374420166016 -11.577064514160156,24.983816146850586 -11.420982360839844,25.108083724975586 C-11.420982360839844,25.108083724975586 -10.460668563842773,25.872657775878906 -10.460668563842773,25.872657775878906 C-10.460668563842773,25.872657775878906 -11.711082458496094,25.917503356933594 -11.711082458496094,25.917503356933594 C-11.850008964538574,25.922487258911133 -12.037712097167969,25.89913558959961 -12.29478931427002,25.84671974182129 C-12.29478931427002,25.84671974182129 -12.680074691772461,25.768165588378906 -12.680074691772461,25.768165588378906 C-12.680074691772461,25.768165588378906 -13.730278015136719,25.484407424926758 -13.730278015136719,25.484407424926758 C-13.875517845153809,25.44516372680664 -14.020821571350098,25.405771255493164 -14.166296005249023,25.3663330078125 C-14.69921875,25.22185707092285 -15.234431266784668,25.076759338378906 -15.77149772644043,24.937698364257812 C-15.77149772644043,24.937698364257812 -16.3587589263916,24.785642623901367 -16.3587589263916,24.785642623901367 C-16.3587589263916,24.785642623901367 -16.49658203125,24.760732650756836 -16.49658203125,24.760732650756836 C-16.68606185913086,24.72648811340332 -16.87746810913086,24.70900535583496 -17.060258865356445,24.69230842590332 C-17.173709869384766,24.68194580078125 -17.284805297851562,24.671798706054688 -17.400054931640625,24.65788459777832 C-17.400054931640625,24.65788459777832 -17.744359970092773,24.616315841674805 -17.744359970092773,24.616315841674805 C-17.744359970092773,24.616315841674805 -17.83431053161621,24.951251983642578 -17.83431053161621,24.951251983642578 C-17.851892471313477,25.016719818115234 -17.869455337524414,25.08211326599121 -17.886999130249023,25.14743995666504 C-18.454179763793945,27.25935935974121 -19.002056121826172,29.299402236938477 -19.57533836364746,31.436357498168945 C-19.57533836364746,31.436357498168945 -19.6789493560791,31.82257843017578 -19.6789493560791,31.82257843017578 C-19.6789493560791,31.82257843017578 -19.292760848999023,31.926307678222656 -19.292760848999023,31.926307678222656 C-15.494751930236816,32.94645309448242 -11.749640464782715,33.95208740234375 -7.970322132110596,34.9669075012207 C-6.225938320159912,35.43531036376953 -4.474267482757568,35.90566635131836 -2.7067391872406006,36.380313873291016 C-2.7067391872406006,36.380313873291016 -2.3203518390655518,36.484073638916016 -2.3203518390655518,36.484073638916016 C-2.3203518390655518,36.484073638916016 -2.2166664600372314,36.09766387939453 -2.2166664600372314,36.09766387939453 C-2.0638954639434814,35.52832794189453 -1.9153268337249756,34.96702575683594 -1.768511414527893,34.41234588623047 C-1.4294524192810059,33.1313591003418 -1.0997925996780396,31.885883331298828 -0.7463415861129761,30.646717071533203 C-0.7463415861129761,30.646717071533203 -0.746326208114624,30.646663665771484 -0.746326208114624,30.646663665771484 C-0.746326208114624,30.646663665771484 -0.746310830116272,30.646610260009766 -0.746310830116272,30.646610260009766 C-0.3701713979244232,29.32649803161621 0.30037230253219604,28.697193145751953 1.5318387746810913,28.515716552734375 C1.5318387746810913,28.515716552734375 2.941129446029663,28.384355545043945 2.941129446029663,28.384355545043945 C4.687695503234863,28.11273193359375 5.756309509277344,27.20030975341797 6.39351224899292,25.430265426635742 C6.39351224899292,25.430265426635742 5.759922504425049,27.19027328491211 5.759922504425049,27.19027328491211 C5.759922504425049,27.19027328491211 6.750216484069824,24.34843635559082 6.750216484069824,24.34843635559082 C7.982054710388184,20.81344223022461 10.073376655578613,17.975635528564453 13.149423599243164,15.721651077270508 C14.718450546264648,14.57103157043457 16.259864807128906,13.304142951965332 17.625137329101562,11.906510353088379 C20.202789306640625,9.267191886901855 21.212446212768555,5.824661731719971 22.039642333984375,2.4276371002197266 C22.039642333984375,2.4276371002197266 22.03965950012207,2.42756724357605 22.03965950012207,2.42756724357605 C22.03965950012207,2.42756724357605 22.039676666259766,2.427497386932373 22.039676666259766,2.427497386932373 C22.96395492553711,-1.3741543292999268 20.860042572021484,-5.056046485900879 17.44108772277832,-6.2316789627075195 C17.44108772277832,-6.2316789627075195 17.122581481933594,-6.3411993980407715 17.122581481933594,-6.3411993980407715 C17.122581481933594,-6.3411993980407715 16.449922561645508,-6.50077486038208 16.449922561645508,-6.50077486038208 C14.99882984161377,-6.845019817352295 13.560052871704102,-7.244012355804443 12.113781929016113,-7.645082950592041 C11.28106689453125,-7.876006603240967 10.445870399475098,-8.10761833190918 9.608084678649902,-8.328754425048828 C9.608084678649902,-8.328754425048828 9.607844352722168,-8.328817367553711 9.607844352722168,-8.328817367553711 C9.607844352722168,-8.328817367553711 9.607604026794434,-8.328880310058594 9.607604026794434,-8.328880310058594 C9.318947792053223,-8.404688835144043 9.020773887634277,-8.44398307800293 8.714588165283203,-8.484333038330078 C8.56199836730957,-8.50444221496582 8.406051635742188,-8.524992942810059 8.238914489746094,-8.551178932189941 C8.238914489746094,-8.551178932189941 7.866994380950928,-8.60944938659668 7.866994380950928,-8.60944938659668 C7.866994380950928,-8.60944938659668 7.786297798156738,-8.241743087768555 7.786297798156738,-8.241743087768555 C7.2857489585876465,-5.96091365814209 6.740882873535156,-4.016397953033447 4.4414567947387695,-2.877439022064209 C4.4414567947387695,-2.877439022064209 3.581859827041626,-2.451660633087158 3.581859827041626,-2.451660633087158 C3.581859827041626,-2.451660633087158 4.489297389984131,-2.1406123638153076 4.489297389984131,-2.1406123638153076z M10.856376647949219,-23.111448287963867 C10.954689025878906,-23.52663803100586 11.040946006774902,-23.888408660888672 11.121532440185547,-24.214017868041992 C11.121532440185547,-24.214017868041992 11.157479286193848,-24.359262466430664 11.157479286193848,-24.359262466430664 C11.157479286193848,-24.359262466430664 11.361223220825195,-25.150989532470703 11.361223220825195,-25.150989532470703 C11.520752906799316,-25.770904541015625 11.676103591918945,-26.37973976135254 11.831684112548828,-26.989477157592773 C12.006123542785645,-27.673126220703125 12.180852890014648,-28.357912063598633 12.362298965454102,-29.06156349182129 C12.362298965454102,-29.06156349182129 12.543327331542969,-29.763591766357422 12.543327331542969,-29.763591766357422 C12.543327331542969,-29.763591766357422 12.700572967529297,-30.126676559448242 12.700572967529297,-30.126676559448242 C13.33431339263916,-31.590002059936523 14.586573600769043,-32.47671127319336 16.2603759765625,-32.676177978515625 C16.2603759765625,-32.676177978515625 17.06569480895996,-32.77214431762695 17.06569480895996,-32.77214431762695 C17.06569480895996,-32.77214431762695 17.74434471130371,-32.65715408325195 17.74434471130371,-32.65715408325195 C19.228750228881836,-32.405635833740234 20.505271911621094,-31.40671157836914 21.055585861206055,-29.96309471130371 C21.055585861206055,-29.96309471130371 21.225833892822266,-29.516489028930664 21.225833892822266,-29.516489028930664 C21.225833892822266,-29.516489028930664 21.308963775634766,-28.968185424804688 21.308963775634766,-28.968185424804688 C21.426057815551758,-28.195865631103516 21.401029586791992,-27.38209342956543 21.25532341003418,-26.608518600463867 C21.25532341003418,-26.608518600463867 21.217702865600586,-26.408777236938477 21.217702865600586,-26.408777236938477 C21.217702865600586,-26.408777236938477 21.04416275024414,-25.614843368530273 21.04416275024414,-25.614843368530273 C20.12398338317871,-21.405086517333984 18.9421443939209,-17.034130096435547 17.789270401000977,-12.770308494567871 C17.582307815551758,-12.004870414733887 17.376279830932617,-11.242889404296875 17.17294692993164,-10.486193656921387 C17.17294692993164,-10.486193656921387 16.93910026550293,-9.615943908691406 16.93910026550293,-9.615943908691406 C16.93910026550293,-9.615943908691406 16.899036407470703,-9.44947624206543 16.899036407470703,-9.44947624206543 C16.830913543701172,-9.166406631469727 16.77230453491211,-8.881175994873047 16.713939666748047,-8.597136497497559 C16.678508758544922,-8.424697875976562 16.643138885498047,-8.252569198608398 16.605154037475586,-8.078085899353027 C16.605154037475586,-8.078085899353027 16.53348731994629,-7.748884677886963 16.53348731994629,-7.748884677886963 C16.53348731994629,-7.748884677886963 16.845718383789062,-7.622304439544678 16.845718383789062,-7.622304439544678 C17.00438117980957,-7.557981491088867 17.149900436401367,-7.499695301055908 17.28567123413086,-7.445314407348633 C17.563522338867188,-7.334024429321289 17.799421310424805,-7.239538192749023 18.033557891845703,-7.139288425445557 C18.033557891845703,-7.139288425445557 18.033660888671875,-7.139244079589844 18.033660888671875,-7.139244079589844 C21.659116744995117,-5.589357376098633 23.75533103942871,-2.3361597061157227 23.234830856323242,1.3977750539779663 C23.234830856323242,1.3977750539779663 23.234827041625977,1.3978079557418823 23.234827041625977,1.3978079557418823 C23.234827041625977,1.3978079557418823 23.234821319580078,1.3978407382965088 23.234821319580078,1.3978407382965088 C22.853483200073242,4.136795997619629 22.091922760009766,6.764495372772217 20.788484573364258,9.228926658630371 C20.788484573364258,9.228926658630371 20.48691749572754,9.799105644226074 20.48691749572754,9.799105644226074 C20.48691749572754,9.799105644226074 20.19782829284668,10.264848709106445 20.19782829284668,10.264848709106445 C18.53679656982422,12.94089412689209 16.17385482788086,14.87873363494873 13.593449592590332,16.72254753112793 C10.890589714050293,18.654661178588867 8.944798469543457,21.22591781616211 7.858079433441162,24.35555076599121 C7.858079433441162,24.35555076599121 7.466027736663818,25.563861846923828 7.466027736663818,25.563861846923828 C6.513613224029541,28.312271118164062 5.208549976348877,29.187414169311523 2.0675837993621826,29.530363082885742 C2.0675837993621826,29.530363082885742 2.0675649642944336,29.530364990234375 2.0675649642944336,29.530364990234375 C1.5141898393630981,29.590837478637695 0.5676461458206177,30.047298431396484 0.38932564854621887,30.585113525390625 C0.38932564854621887,30.585113525390625 0.3892742395401001,30.585269927978516 0.3892742395401001,30.585269927978516 C0.3892742395401001,30.585269927978516 0.3892229497432709,30.585424423217773 0.3892229497432709,30.585424423217773 C-0.07195070385932922,31.980138778686523 -0.44205015897750854,33.404632568359375 -0.8051944971084595,34.8023567199707 C-0.9330417513847351,35.29443359375 -1.0600203275680542,35.783164978027344 -1.1903082132339478,36.26824188232422 C-1.1903082132339478,36.26824188232422 -1.2747735977172852,36.58271789550781 -1.2747735977172852,36.58271789550781 C-1.2747735977172852,36.58271789550781 -0.9839750528335571,36.729225158691406 -0.9839750528335571,36.729225158691406 C0.8789218068122864,37.667781829833984 2.106881856918335,37.18437576293945 2.673372268676758,35.39364242553711 C2.673372268676758,35.39364242553711 2.6734259128570557,35.39347457885742 2.6734259128570557,35.39347457885742 C2.6734259128570557,35.39347457885742 2.6734795570373535,35.39330291748047 2.6734795570373535,35.39330291748047 C2.683506965637207,35.361507415771484 2.693432569503784,35.33017349243164 2.703519105911255,35.29833221435547 C2.757322311401367,35.12847900390625 2.81355881690979,34.95094299316406 2.864015579223633,34.76860809326172 C2.864015579223633,34.76860809326172 3.2341339588165283,33.43111038208008 3.2341339588165283,33.43111038208008 C3.2341339588165283,33.43111038208008 3.422025203704834,33.250160217285156 3.422025203704834,33.250160217285156 C3.637746572494507,33.04240798950195 3.9406983852386475,32.90409851074219 4.363558769226074,32.78721237182617 C4.363558769226074,32.78721237182617 4.8668107986450195,32.64810562133789 4.8668107986450195,32.64810562133789 C4.8668107986450195,32.64810562133789 5.035114288330078,32.59366226196289 5.035114288330078,32.59366226196289 C7.7270331382751465,31.722890853881836 9.674781799316406,29.848854064941406 10.607490539550781,27.184829711914062 C10.607490539550781,27.184829711914062 10.24674129486084,28.215208053588867 10.24674129486084,28.215208053588867 C10.24674129486084,28.215208053588867 10.960705757141113,26.05801010131836 10.960705757141113,26.05801010131836 C11.792494773864746,23.544811248779297 13.190206527709961,21.550643920898438 15.204122543334961,19.919286727905273 C15.204122543334961,19.919286727905273 15.12157917022705,19.98615074157715 15.12157917022705,19.98615074157715 C15.12157917022705,19.98615074157715 16.91656494140625,18.65903663635254 16.91656494140625,18.65903663635254 C18.674060821533203,17.359638214111328 20.30949592590332,15.896331787109375 21.714019775390625,14.17870807647705 C21.714019775390625,14.17870807647705 22.118907928466797,13.683558464050293 22.118907928466797,13.683558464050293 C22.118907928466797,13.683558464050293 22.459341049194336,13.20720100402832 22.459341049194336,13.20720100402832 C24.57390022277832,10.248364448547363 25.625032424926758,6.860194683074951 26.426958084106445,3.428525686264038 C26.426958084106445,3.428525686264038 26.6646785736084,2.4112515449523926 26.6646785736084,2.4112515449523926 C26.6646785736084,2.4112515449523926 26.732093811035156,1.9282881021499634 26.732093811035156,1.9282881021499634 C27.267642974853516,-1.908417820930481 25.608312606811523,-6.027721881866455 22.58919906616211,-8.48301887512207 C22.58919906616211,-8.48301887512207 22.285785675048828,-8.729771614074707 22.285785675048828,-8.729771614074707 C22.285785675048828,-8.729771614074707 21.96742057800293,-8.951366424560547 21.96742057800293,-8.951366424560547 C21.96695899963379,-8.951687812805176 21.96649742126465,-8.952009201049805 21.966035842895508,-8.952329635620117 C20.79264259338379,-9.769059181213379 20.628463745117188,-9.88333511352539 20.79953956604004,-10.561534881591797 C20.79953956604004,-10.561534881591797 20.591171264648438,-9.735495567321777 20.591171264648438,-9.735495567321777 C20.591171264648438,-9.735495567321777 21.089841842651367,-11.59560489654541 21.089841842651367,-11.59560489654541 C21.12234878540039,-11.716861724853516 21.154932022094727,-11.83837890625 21.187585830688477,-11.96016788482666 C22.439903259277344,-16.630746841430664 23.795866012573242,-21.687885284423828 24.760107040405273,-26.354108810424805 C25.63580322265625,-30.59754180908203 22.863370895385742,-35.041969299316406 18.688156127929688,-35.974578857421875 C14.296664237976074,-36.95503234863281 10.34704875946045,-34.41725158691406 9.102767944335938,-30.573535919189453 C9.102767944335938,-30.573535919189453 9.101983070373535,-30.571109771728516 9.101983070373535,-30.571109771728516 C9.101983070373535,-30.571109771728516 9.101228713989258,-30.568674087524414 9.101228713989258,-30.568674087524414 C8.997520446777344,-30.23379898071289 8.916402816772461,-29.885278701782227 8.83808422088623,-29.548782348632812 C8.802838325500488,-29.397350311279297 8.768142700195312,-29.248281478881836 8.731743812561035,-29.101221084594727 C8.731743812561035,-29.101221084594727 8.534852027893066,-28.305713653564453 8.534852027893066,-28.305713653564453 C8.534852027893066,-28.305713653564453 8.304366111755371,-28.174564361572266 8.304366111755371,-28.174564361572266 C8.158623695373535,-28.09163475036621 7.947585105895996,-28.075044631958008 7.598227500915527,-28.07001304626465 C7.598227500915527,-28.07001304626465 7.5980329513549805,-28.070011138916016 7.5980329513549805,-28.070011138916016 C7.5980329513549805,-28.070011138916016 7.597838401794434,-28.07000732421875 7.597838401794434,-28.07000732421875 C7.0074968338012695,-28.06093406677246 6.396140098571777,-28.047765731811523 5.783422946929932,-28.034568786621094 C5.126832962036133,-28.02042579650879 4.468661308288574,-28.006248474121094 3.8301801681518555,-27.996957778930664 C3.8301801681518555,-27.996957778930664 3.830007791519165,-27.99695587158203 3.830007791519165,-27.99695587158203 C3.830007791519165,-27.99695587158203 3.8298354148864746,-27.996952056884766 3.8298354148864746,-27.996952056884766 C3.355130910873413,-27.989635467529297 2.8919742107391357,-28.00992202758789 2.558295488357544,-28.178544998168945 C2.558295488357544,-28.178544998168945 5.863703727722168,-26.508176803588867 5.863703727722168,-26.508176803588867 C5.863703727722168,-26.508176803588867 1.8278385400772095,-28.584529876708984 1.8278385400772095,-28.584529876708984 C-1.2950959205627441,-30.191204071044922 -4.451955795288086,-29.980932235717773 -7.231382846832275,-27.882829666137695 C-7.231382846832275,-27.882829666137695 -7.318725109100342,-27.816898345947266 -7.318725109100342,-27.816898345947266 C-7.318725109100342,-27.816898345947266 -7.880268573760986,-27.35531234741211 -7.880268573760986,-27.35531234741211 C-8.360734939575195,-26.960372924804688 -8.690136909484863,-26.848955154418945 -9.269868850708008,-27.02815818786621 C-9.269868850708008,-27.02815818786621 -9.270014762878418,-27.0282039642334 -9.270014762878418,-27.0282039642334 C-9.270014762878418,-27.0282039642334 -9.270159721374512,-27.028247833251953 -9.270159721374512,-27.028247833251953 C-13.211186408996582,-28.24319076538086 -18.273773193359375,-25.8322811126709 -19.48482322692871,-21.036943435668945 C-20.486804962158203,-17.06559181213379 -21.558269500732422,-13.112349510192871 -22.63067626953125,-9.155632972717285 C-23.05221176147461,-7.600348949432373 -23.473892211914062,-6.044528007507324 -23.8913516998291,-4.4875922203063965 C-24.66523551940918,-1.6011943817138672 -24.992477416992188,1.3592301607131958 -25.06288719177246,4.325508117675781 C-25.06288719177246,4.325508117675781 -25.062889099121094,4.325542449951172 -25.062889099121094,4.325542449951172 C-25.154436111450195,8.210769653320312 -25.509525299072266,12.024599075317383 -26.414688110351562,15.799848556518555 C-26.414688110351562,15.799848556518555 -26.741073608398438,17.161128997802734 -26.741073608398438,17.161128997802734 C-26.741073608398438,17.161128997802734 -26.744569778442383,17.179304122924805 -26.744569778442383,17.179304122924805 C-27.342435836791992,20.287487030029297 -26.305957794189453,23.134212493896484 -23.92888832092285,25.30722999572754 C-23.086944580078125,26.076845169067383 -22.869094848632812,26.606904983520508 -23.259605407714844,27.568492889404297 C-23.259605407714844,27.568492889404297 -23.259674072265625,27.568666458129883 -23.259674072265625,27.568666458129883 C-23.371807098388672,27.845521926879883 -23.435117721557617,28.142383575439453 -23.490467071533203,28.401912689208984 C-23.497365951538086,28.434261322021484 -23.5040283203125,28.46550750732422 -23.51093101501465,28.497455596923828 C-23.51093101501465,28.497455596923828 -23.5870304107666,28.849618911743164 -23.5870304107666,28.849618911743164 C-23.5870304107666,28.849618911743164 -23.595996856689453,29.150041580200195 -23.595996856689453,29.150041580200195 C-23.638187408447266,30.563518524169922 -22.648818969726562,31.404014587402344 -20.987863540649414,31.291078567504883 C-20.987863540649414,31.291078567504883 -20.702816009521484,31.271696090698242 -20.702816009521484,31.271696090698242 C-20.702816009521484,31.271696090698242 -20.628694534301758,30.995773315429688 -20.628694534301758,30.995773315429688 C-20.062692642211914,28.888765335083008 -19.49568748474121,26.77774429321289 -18.922683715820312,24.64373016357422 C-18.922683715820312,24.64373016357422 -18.840110778808594,24.336210250854492 -18.840110778808594,24.336210250854492 C-18.840110778808594,24.336210250854492 -19.12128448486328,24.186782836914062 -19.12128448486328,24.186782836914062 C-19.296186447143555,24.09383201599121 -19.461685180664062,24.006275177001953 -19.620689392089844,23.922151565551758 C-19.874467849731445,23.78788948059082 -20.111557006835938,23.662456512451172 -20.34600257873535,23.53673553466797 C-20.34600257873535,23.53673553466797 -20.764442443847656,23.312349319458008 -20.764442443847656,23.312349319458008 C-20.764442443847656,23.312349319458008 -21.05712890625,23.113555908203125 -21.05712890625,23.113555908203125 C-22.397493362426758,22.203174591064453 -23.14349365234375,20.948129653930664 -23.29359245300293,19.27133560180664 C-23.29359245300293,19.27133560180664 -23.293601989746094,19.27122688293457 -23.293601989746094,19.27122688293457 C-23.376277923583984,18.353242874145508 -23.23072624206543,17.394094467163086 -22.987150192260742,16.467716217041016 C-22.152114868164062,13.290759086608887 -21.699647903442383,10.048415184020996 -21.623109817504883,6.768331050872803 C-21.623109817504883,6.768331050872803 -21.62310791015625,6.768289089202881 -21.62310791015625,6.768289089202881 C-21.54854965209961,3.543912887573242 -21.449020385742188,0.34852203726768494 -20.70086669921875,-2.7559542655944824 C-20.70086669921875,-2.7559542655944824 -20.65930938720703,-2.928395986557007 -20.65930938720703,-2.928395986557007 C-20.65930938720703,-2.928395986557007 -20.487838745117188,-3.5980403423309326 -20.487838745117188,-3.5980403423309326 C-19.0538387298584,-9.19826889038086 -17.56294059753418,-14.782291412353516 -16.00774383544922,-20.35039710998535 C-15.063643455505371,-23.73335075378418 -11.282864570617676,-24.886531829833984 -8.521981239318848,-22.719356536865234 C-8.521981239318848,-22.719356536865234 -8.52184009552002,-22.71924591064453 -8.52184009552002,-22.71924591064453 C-8.52184009552002,-22.71924591064453 -8.521698951721191,-22.719135284423828 -8.521698951721191,-22.719135284423828 C-8.322568893432617,-22.5631160736084 -8.118866920471191,-22.41393280029297 -7.891067981719971,-22.247102737426758 C-7.777194023132324,-22.163705825805664 -7.656972885131836,-22.075660705566406 -7.526305675506592,-21.978734970092773 C-7.526305675506592,-21.978734970092773 -7.089555263519287,-21.65476417541504 -7.089555263519287,-21.65476417541504 C-7.089555263519287,-21.65476417541504 -6.910346031188965,-22.168176651000977 -6.910346031188965,-22.168176651000977 C-6.157634735107422,-24.32459259033203 -5.017426490783691,-25.677593231201172 -2.8514316082000732,-25.98702049255371 C-2.8514316082000732,-25.98702049255371 -2.851396322250366,-25.987024307250977 -2.851396322250366,-25.987024307250977 C-2.851396322250366,-25.987024307250977 -2.85136079788208,-25.987030029296875 -2.85136079788208,-25.987030029296875 C-0.6419758796691895,-26.303058624267578 0.855252206325531,-25.282987594604492 2.101611375808716,-23.523761749267578 C2.101611375808716,-23.523761749267578 2.3166420459747314,-23.22024917602539 2.3166420459747314,-23.22024917602539 C2.3166420459747314,-23.22024917602539 2.634953498840332,-23.41269874572754 2.634953498840332,-23.41269874572754 C5.828676223754883,-25.34360694885254 6.653379917144775,-25.26032829284668 10.245584487915039,-22.87057876586914 C10.245584487915039,-22.87057876586914 10.723981857299805,-22.55232048034668 10.723981857299805,-22.55232048034668 C10.723981857299805,-22.55232048034668 10.856376647949219,-23.111448287963867 10.856376647949219,-23.111448287963867z M15.431185722351074,-8.37166690826416 C15.488349914550781,-8.546463012695312 15.543011665344238,-8.706561088562012 15.595325469970703,-8.859781265258789 C15.673182487487793,-9.087814331054688 15.746417999267578,-9.302310943603516 15.8104887008667,-9.51577091217041 C15.8104887008667,-9.51577091217041 15.836912155151367,-9.603804588317871 15.836912155151367,-9.603804588317871 C15.836912155151367,-9.603804588317871 16.082908630371094,-10.513252258300781 16.082908630371094,-10.513252258300781 C16.29545783996582,-11.299044609069824 16.510486602783203,-12.089345932006836 16.726417541503906,-12.882967948913574 C17.87090492248535,-17.08933448791504 19.040788650512695,-21.389039993286133 19.98992156982422,-25.565021514892578 C19.98992156982422,-25.565021514892578 20.107498168945312,-26.082334518432617 20.107498168945312,-26.082334518432617 C20.107498168945312,-26.082334518432617 20.195812225341797,-26.484895706176758 20.195812225341797,-26.484895706176758 C20.279619216918945,-26.866912841796875 20.360721588134766,-27.274965286254883 20.392547607421875,-27.6840763092041 C20.392547607421875,-27.6840763092041 20.4284725189209,-28.1458740234375 20.4284725189209,-28.1458740234375 C20.4284725189209,-28.1458740234375 20.357290267944336,-28.562028884887695 20.357290267944336,-28.562028884887695 C20.081689834594727,-30.173259735107422 18.66762924194336,-31.539073944091797 17.030479431152344,-31.665285110473633 C15.251422882080078,-31.802282333374023 13.591878890991211,-30.484590530395508 13.155098915100098,-28.540742874145508 C12.227560043334961,-24.40917205810547 11.098247528076172,-20.30388069152832 9.962310791015625,-16.17451286315918 C9.574128150939941,-14.763385772705078 9.185175895690918,-13.349459648132324 8.803622245788574,-11.932016372680664 C8.803622245788574,-11.932016372680664 8.633122444152832,-11.298624038696289 8.633122444152832,-11.298624038696289 C8.633122444152832,-11.298624038696289 8.617995262145996,-11.234567642211914 8.617995262145996,-11.234567642211914 C8.568235397338867,-11.023860931396484 8.538856506347656,-10.80773639678955 8.509895324707031,-10.594683647155762 C8.493424415588379,-10.473517417907715 8.476932525634766,-10.352192878723145 8.456153869628906,-10.224002838134766 C8.456153869628906,-10.224002838134766 8.398348808288574,-9.867395401000977 8.398348808288574,-9.867395401000977 C8.398348808288574,-9.867395401000977 8.747245788574219,-9.773690223693848 8.747245788574219,-9.773690223693848 C10.354819297790527,-9.341933250427246 11.91850471496582,-8.922367095947266 13.551994323730469,-8.484071731567383 C14.010759353637695,-8.360976219177246 14.475028038024902,-8.236404418945312 14.947331428527832,-8.109667778015137 C14.947331428527832,-8.109667778015137 15.313380241394043,-8.011443138122559 15.313380241394043,-8.011443138122559 C15.313380241394043,-8.011443138122559 15.431185722351074,-8.37166690826416 15.431185722351074,-8.37166690826416z M1.350036382675171,-14.762958526611328 C1.3485363721847534,-14.763458251953125 1.347036361694336,-14.763957977294922 1.3455363512039185,-14.764458656311035 C1.3455363512039185,-14.764458656311035 0.9425724744796753,-14.898833274841309 0.9425724744796753,-14.898833274841309 C0.9425724744796753,-14.898833274841309 0.8326300978660583,-14.488529205322266 0.8326300978660583,-14.488529205322266 C0.7145344614982605,-14.047798156738281 0.5959753394126892,-13.607182502746582 0.47737178206443787,-13.166401863098145 C0.30507493019104004,-12.526073455810547 0.13268418610095978,-11.885396957397461 -0.0382608026266098,-11.244449615478516 C-0.0382608026266098,-11.244449615478516 -0.268121600151062,-10.382600784301758 -0.268121600151062,-10.382600784301758 C-0.268121600151062,-10.382600784301758 -0.2591843605041504,-10.415482521057129 -0.2591843605041504,-10.415482521057129 C-0.3103279173374176,-10.227317810058594 -0.36303773522377014,-10.0390043258667 -0.4161626100540161,-9.849206924438477 C-0.578836977481842,-9.268026351928711 -0.7454211115837097,-8.67287826538086 -0.869219958782196,-8.068347930908203 C-0.869219958782196,-8.068347930908203 -0.9833752512931824,-7.510909080505371 -0.9833752512931824,-7.510909080505371 C-0.9833752512931824,-7.510909080505371 -0.9828730225563049,-7.107256889343262 -0.9828730225563049,-7.107256889343262 C-0.9811143279075623,-5.693614482879639 -0.19549106061458588,-4.421884536743164 1.0210330486297607,-3.8132803440093994 C1.0210330486297607,-3.8132803440093994 1.589738130569458,-3.5287680625915527 1.589738130569458,-3.5287680625915527 C1.589738130569458,-3.5287680625915527 2.2302680015563965,-3.456519842147827 2.2302680015563965,-3.456519842147827 C3.777587652206421,-3.2819902896881104 5.297481536865234,-4.124392986297607 6.013660430908203,-5.640115261077881 C6.013660430908203,-5.640115261077881 6.013746738433838,-5.640297889709473 6.013746738433838,-5.640297889709473 C6.013746738433838,-5.640297889709473 6.013833045959473,-5.640480995178223 6.013833045959473,-5.640480995178223 C6.179783344268799,-5.992619514465332 6.297179698944092,-6.375835418701172 6.396920680999756,-6.7335968017578125 C6.396920680999756,-6.7335968017578125 6.407210826873779,-6.770506858825684 6.407210826873779,-6.770506858825684 C6.407210826873779,-6.770506858825684 6.56528902053833,-7.3439507484436035 6.56528902053833,-7.3439507484436035 C7.262146949768066,-9.871871948242188 7.957723140716553,-12.400815963745117 8.64161491394043,-14.933401107788086 C8.64161491394043,-14.933401107788086 8.574068069458008,-14.683260917663574 8.574068069458008,-14.683260917663574 C8.574068069458008,-14.683260917663574 8.78862476348877,-15.47850513458252 8.78862476348877,-15.47850513458252 C8.840628623962402,-15.671257972717285 8.893224716186523,-15.864049911499023 8.945990562438965,-16.057466506958008 C9.231148719787598,-17.102725982666016 9.521289825439453,-18.1662540435791 9.722232818603516,-19.244733810424805 C9.722232818603516,-19.244733810424805 9.722270965576172,-19.244935989379883 9.722270965576172,-19.244935989379883 C9.722270965576172,-19.244935989379883 9.722308158874512,-19.24513816833496 9.722308158874512,-19.24513816833496 C10.005396842956543,-20.77324676513672 9.425745964050293,-22.186216354370117 8.330111503601074,-22.97590446472168 C8.330111503601074,-22.97590446472168 7.758148670196533,-23.388153076171875 7.758148670196533,-23.388153076171875 C7.758148670196533,-23.388153076171875 7.015262126922607,-23.571565628051758 7.015262126922607,-23.571565628051758 C5.107135772705078,-24.042667388916016 3.2097580432891846,-22.985193252563477 2.5741164684295654,-20.88275909423828 C2.5741164684295654,-20.88275909423828 2.5740931034088135,-20.88268280029297 2.5740931034088135,-20.88268280029297 C2.1305012702941895,-19.413328170776367 1.743382453918457,-17.927169799804688 1.3581538200378418,-16.448266983032227 C1.2727681398391724,-16.12047004699707 1.1874752044677734,-15.793027877807617 1.1016168594360352,-15.465940475463867 C1.1016168594360352,-15.465940475463867 0.9519197940826416,-14.89565372467041 0.9519197940826416,-14.89565372467041 C0.9519197940826416,-14.89565372467041 1.350036382675171,-14.762958526611328 1.350036382675171,-14.762958526611328z M0.014204351231455803,-15.4284029006958 C0.412308931350708,-16.896650314331055 0.8201931715011597,-18.365739822387695 1.2014893293380737,-19.843233108520508 C1.2014893293380737,-19.843233108520508 1.4785137176513672,-20.91668128967285 1.4785137176513672,-20.91668128967285 C1.4785137176513672,-20.91668128967285 1.5005897283554077,-21.32048988342285 1.5005897283554077,-21.32048988342285 C1.58389413356781,-22.84427261352539 0.7650913000106812,-24.24970817565918 -0.5617660880088806,-24.890382766723633 C-0.5617660880088806,-24.890382766723633 -1.1878968477249146,-25.192710876464844 -1.1878968477249146,-25.192710876464844 C-1.1878968477249146,-25.192710876464844 -1.881980061531067,-25.241098403930664 -1.881980061531067,-25.241098403930664 C-3.565164566040039,-25.358440399169922 -5.1919026374816895,-24.282228469848633 -5.681296348571777,-22.527456283569336 C-6.670902729034424,-18.974252700805664 -7.627377986907959,-15.410308837890625 -8.559101104736328,-11.841517448425293 C-8.559101104736328,-11.841517448425293 -8.792915344238281,-10.945932388305664 -8.792915344238281,-10.945932388305664 C-8.792915344238281,-10.945932388305664 -8.823431968688965,-10.751386642456055 -8.823431968688965,-10.751386642456055 C-9.118227005004883,-8.871991157531738 -7.979196071624756,-7.053715229034424 -6.213815212249756,-6.564525604248047 C-4.519458293914795,-6.095304489135742 -2.7339096069335938,-6.961716651916504 -1.9249374866485596,-8.559309959411621 C-1.9249374866485596,-8.559309959411621 -1.7431248426437378,-8.918360710144043 -1.7431248426437378,-8.918360710144043 C-1.7431248426437378,-8.918360710144043 -1.5045889616012573,-9.771347045898438 -1.5045889616012573,-9.771347045898438 C-1.1881215572357178,-10.903009414672852 -0.8877477645874023,-12.03864574432373 -0.5881338715553284,-13.171408653259277 C-0.46239468455314636,-13.646796226501465 -0.3367893397808075,-14.121678352355957 -0.21003127098083496,-14.596145629882812 C-0.21003127098083496,-14.596145629882812 -0.11447575688362122,-14.953818321228027 -0.11447575688362122,-14.953818321228027 C-0.11447575688362122,-14.953818321228027 0.014204351231455803,-15.4284029006958 0.014204351231455803,-15.4284029006958z M-15.984906196594238,-15.691156387329102 C-15.985937118530273,-15.691437721252441 -15.987250328063965,-15.691999435424805 -15.98799991607666,-15.691999435424805 C-15.98799991607666,-15.691999435424805 -16.294660568237305,-15.691999435424805 -16.294660568237305,-15.691999435424805 C-16.294660568237305,-15.691999435424805 -16.374282836914062,-15.395855903625488 -16.374282836914062,-15.395855903625488 C-16.76632308959961,-13.937699317932129 -17.157323837280273,-12.478699684143066 -17.54928207397461,-11.020855903625488 C-17.54928207397461,-11.020855903625488 -17.549619674682617,-11.019599914550781 -17.549619674682617,-11.019599914550781 C-17.549619674682617,-11.019599914550781 -17.549949645996094,-11.018341064453125 -17.549949645996094,-11.018341064453125 C-17.571229934692383,-10.93708610534668 -17.59676742553711,-10.84493350982666 -17.61732292175293,-10.7478666305542 C-17.61732292175293,-10.7478666305542 -17.61768913269043,-10.746133804321289 -17.61768913269043,-10.746133804321289 C-17.61768913269043,-10.746133804321289 -17.618040084838867,-10.744397163391113 -17.618040084838867,-10.744397163391113 C-17.924238204956055,-9.232479095458984 -17.583133697509766,-7.754363059997559 -16.23918914794922,-6.7774481773376465 C-16.23918914794922,-6.7774481773376465 -16.23906135559082,-6.777355670928955 -16.23906135559082,-6.777355670928955 C-16.23906135559082,-6.777355670928955 -16.238933563232422,-6.7772626876831055 -16.238933563232422,-6.7772626876831055 C-14.429370880126953,-5.464069366455078 -12.010489463806152,-6.015139102935791 -10.929523468017578,-7.856616497039795 C-10.929523468017578,-7.856616497039795 -10.679101943969727,-8.283222198486328 -10.679101943969727,-8.283222198486328 C-10.679101943969727,-8.283222198486328 -10.307632446289062,-9.554986000061035 -10.307632446289062,-9.554986000061035 C-9.740042686462402,-11.49819278717041 -9.21914005279541,-13.454522132873535 -8.699482917785645,-15.406177520751953 C-8.482928276062012,-16.219482421875 -8.266589164733887,-17.0319766998291 -8.04689884185791,-17.843473434448242 C-8.04689884185791,-17.843473434448242 -8.046813011169434,-17.84379005432129 -8.046813011169434,-17.84379005432129 C-8.046813011169434,-17.84379005432129 -8.046727180480957,-17.844106674194336 -8.046727180480957,-17.844106674194336 C-7.97127103805542,-18.124649047851562 -7.9345173835754395,-18.42013168334961 -7.908880710601807,-18.693008422851562 C-7.908880710601807,-18.693008422851562 -7.868678569793701,-19.12092399597168 -7.868678569793701,-19.12092399597168 C-7.868678569793701,-19.12092399597168 -7.8993754386901855,-19.459003448486328 -7.8993754386901855,-19.459003448486328 C-8.034733772277832,-20.949777603149414 -9.081260681152344,-22.215789794921875 -10.57121467590332,-22.607833862304688 C-12.278215408325195,-23.05649185180664 -14.014415740966797,-22.23716163635254 -14.848067283630371,-20.637407302856445 C-14.848067283630371,-20.637407302856445 -15.053057670593262,-20.244037628173828 -15.053057670593262,-20.244037628173828 C-15.053057670593262,-20.244037628173828 -15.315447807312012,-19.343351364135742 -15.315447807312012,-19.343351364135742 C-15.602499008178711,-18.35801124572754 -15.854714393615723,-17.365148544311523 -16.11109161376953,-16.378650665283203 C-16.11109161376953,-16.378650665283203 -16.269594192504883,-15.768758773803711 -16.269594192504883,-15.768758773803711 C-16.269594192504883,-15.768758773803711 -15.984906196594238,-15.691156387329102 -15.984906196594238,-15.691156387329102z"></path></g></g><g transform="matrix(3.9983012676239014,-0.11656619608402252,0.11656619608402252,3.9983012676239014,58.20185089111328,85.1995849609375)" opacity="1" style="display: block;"><g opacity="1" transform="matrix(1,0,0,1,29.086999893188477,39.10300064086914)"><path fill="rgb(0,0,0)" fill-opacity="1" d=" M7.120583534240723,-29.75224494934082 C7.690737724304199,-31.015283584594727 8.148731231689453,-32.02499771118164 8.829399108886719,-33.13746643066406 C11.023721694946289,-36.72501754760742 15.585418701171875,-38.77240753173828 20.50433921813965,-36.82051086425781 C24.53891944885254,-35.21978759765625 26.988737106323242,-30.620193481445312 26.10746955871582,-26.226177215576172 C25.200359344482422,-21.697437286376953 23.87700080871582,-16.677000045776367 22.672000885009766,-12.163000106811523 C22.538999557495117,-11.668000221252441 22.4060001373291,-11.17199993133545 22.275999069213867,-10.687999725341797 C22.562999725341797,-10.404999732971191 22.759000778198242,-10.173999786376953 22.990999221801758,-9.989999771118164 C27.02400016784668,-6.796000003814697 28.836999893188477,-2.615999937057495 28.05900001525879,2.4549999237060547 C27.15999984741211,8.317000389099121 24.909000396728516,13.597000122070312 20.347999572753906,17.632999420166016 C19.152999877929688,18.69099998474121 17.865999221801758,19.650999069213867 16.572999954223633,20.59000015258789 C14.354000091552734,22.201000213623047 12.892999649047852,24.305999755859375 12.131999969482422,26.94099998474121 C11.13700008392334,30.38599967956543 8.887999534606934,32.709999084472656 5.53000020980835,33.887001037597656 C4.658999919891357,34.19300079345703 4.357999801635742,34.691001892089844 4.085000038146973,35.479000091552734 C3.7960000038146973,36.310001373291016 3.388000011444092,37.17100143432617 2.802999973297119,37.810001373291016 C2.078000068664551,38.60300064086914 1.0479999780654907,38.85300064086914 -0.05999999865889549,38.55400085449219 C-7.614999771118164,36.51900100708008 -15.175999641418457,34.50600051879883 -22.725000381469727,32.45399856567383 C-24.489999771118164,31.974000930786133 -25.43199920654297,30.30299949645996 -24.916000366210938,28.354999542236328 C-24.599000930786133,27.159000396728516 -24.85099983215332,26.41699981689453 -25.666000366210938,25.499000549316406 C-27.920000076293945,22.958999633789062 -28.836999893188477,19.902000427246094 -27.996999740600586,16.57900047302246 C-26.83300018310547,11.970000267028809 -26.618000030517578,7.281000137329102 -26.301000595092773,2.5789999961853027 C-26.118000030517578,-0.12399999797344208 -25.711000442504883,-2.8450000286102295 -25.075000762939453,-5.479000091552734 C-23.785999298095703,-10.817999839782715 -22.30699920654297,-16.11199951171875 -20.843000411987305,-21.406999588012695 C-19.45199966430664,-26.44099998474121 -15.048999786376953,-29.30699920654297 -9.894000053405762,-28.57200050354004 C-9.145000457763672,-28.46500015258789 -8.598999977111816,-28.632999420166016 -7.992000102996826,-29.065000534057617 C-4.565999984741211,-31.506000518798828 -0.9890000224113464,-31.73699951171875 2.7239999771118164,-29.708999633789062 C3.0399999618530273,-29.535999298095703 3.4560000896453857,-29.437999725341797 3.812999963760376,-29.46500015258789 C4.9679999351501465,-29.55299949645996 5.997341156005859,-29.57145881652832 7.120583534240723,-29.75224494934082z M4.61899995803833,-2.5190000534057617 C5.324999809265137,-2.2769999504089355 5.671000003814697,-2.135999917984009 6.0289998054504395,-2.0380001068115234 C8.324000358581543,-1.4140000343322754 10.619999885559082,-0.7990000247955322 12.916000366210938,-0.18000000715255737 C13.25,-0.08900000154972076 13.585000038146973,-0.0020000000949949026 13.911999702453613,0.10999999940395355 C14.425000190734863,0.28700000047683716 14.791999816894531,0.6650000214576721 14.529999732971191,1.1790000200271606 C14.380999565124512,1.4700000286102295 13.89799976348877,1.6130000352859497 13.541999816894531,1.7649999856948853 C13.40999984741211,1.8209999799728394 13.208999633789062,1.7120000123977661 13.038999557495117,1.6779999732971191 C6.068999767303467,0.25699999928474426 0.35499998927116394,4.75600004196167 -1.121000051498413,9.805999755859375 C-1.3170000314712524,10.475000381469727 -1.5429999828338623,11.218999862670898 -2.4739999771118164,11.065999984741211 C-3.0950000286102295,10.96399974822998 -3.2300000190734863,10.184000015258789 -2.86299991607666,9.161999702453613 C-2.8480000495910645,9.121000289916992 -2.8299999237060547,9.081999778747559 -2.815000057220459,9.041000366210938 C-1.215000033378601,4.839000225067139 1.6629999876022339,1.9229999780654907 5.89900016784668,0.3720000088214874 C6.084000110626221,0.30399999022483826 6.25600004196167,0.20200000703334808 6.513999938964844,0.07900000363588333 C3.068000078201294,-1.3509999513626099 -0.5540000200271606,-2.2820000648498535 -2.4210000038146973,-5.936999797821045 C-5.0879998207092285,-4.563000202178955 -7.422999858856201,-5.14300012588501 -9.479999542236328,-7.326000213623047 C-10.557000160217285,-5.743000030517578 -11.862000465393066,-4.794000148773193 -13.680000305175781,-4.625 C-15.513999938964844,-4.454999923706055 -16.8799991607666,-5.382999897003174 -18.270999908447266,-6.591000080108643 C-19.312000274658203,-3.194000005722046 -19.99799919128418,0.10000000149011612 -20.093000411987305,3.4809999465942383 C-20.22599983215332,8.246999740600586 -20.599000930786133,12.967000007629395 -21.79400062561035,17.607999801635742 C-22.423999786376953,20.05500030517578 -21.277999877929688,21.849000930786133 -18.854000091552734,22.55699920654297 C-18.19099998474121,22.750999450683594 -17.520000457763672,22.92099952697754 -16.851999282836914,23.10099983215332 C-15.515999794006348,23.459999084472656 -14.180000305175781,23.816999435424805 -12.843999862670898,24.177000045776367 C-11.196999549865723,24.621000289916992 -10.753000259399414,24.958999633789062 -10.907999992370605,25.642000198364258 C-11.074000358581543,26.37299919128418 -11.654000282287598,26.45400047302246 -13.39799976348877,25.988000869750977 C-14.399999618530273,25.719999313354492 -15.399999618530273,25.440000534057617 -16.4060001373291,25.18899917602539 C-16.726999282836914,25.107999801635742 -17.066999435424805,25.10099983215332 -17.447999954223633,25.05500030517578 C-18.034000396728516,27.23699951171875 -18.597999572753906,29.336999893188477 -19.18899917602539,31.540000915527344 C-13.637999534606934,33.03099822998047 -8.199999809265137,34.49100112915039 -2.6029999256134033,35.99399948120117 C-2.0980000495910645,34.11199951171875 -1.6390000581741333,32.31800079345703 -1.13100004196167,30.53700065612793 C-0.6639999747276306,28.898000717163086 0.3580000102519989,28.136999130249023 2.078000068664551,28.065000534057617 C4.341000080108643,27.97100067138672 5.4629998207092285,27.121999740600586 6.132999897003174,24.94700050354004 C7.343999862670898,21.016000747680664 9.579000473022461,17.841999053955078 12.913000106811523,15.39900016784668 C14.472999572753906,14.255000114440918 15.98900032043457,13.008999824523926 17.339000701904297,11.626999855041504 C19.847000122070312,9.059000015258789 20.826000213623047,5.7210001945495605 21.650999069213867,2.3329999446868896 C22.597000122070312,-1.5579999685287476 20.315000534057617,-5.193999767303467 16.649999618530273,-6.043000221252441 C14.25100040435791,-6.598999977111816 11.888999938964844,-7.313000202178955 9.505999565124512,-7.941999912261963 C9.109999656677246,-8.045999526977539 8.694000244140625,-8.074999809265137 8.177000045776367,-8.156000137329102 C7.673999786376953,-5.863999843597412 7.078000068664551,-3.736999988555908 4.61899995803833,-2.5190000534057617z M10.467140197753906,-23.203615188598633 C10.598323822021484,-23.757625579833984 10.708793640136719,-24.21967124938965 10.812912940979004,-24.627222061157227 C11.238251686096191,-26.269561767578125 11.624980926513672,-27.808849334716797 12.053236961364746,-29.464502334594727 C12.64653491973877,-31.75779914855957 14.5355863571167,-33.11808776855469 17.002763748168945,-33.1192626953125 C19.14634132385254,-33.12009811401367 21.171749114990234,-31.59068489074707 21.636735916137695,-29.401151657104492 C21.842445373535156,-28.432357788085938 21.82087516784668,-27.344833374023438 21.615995407104492,-26.371936798095703 C20.458637237548828,-20.890094757080078 18.820999145507812,-15.102999687194824 17.35700035095215,-9.628000259399414 C17.21500015258789,-9.098999977111816 17.118999481201172,-8.557999610900879 16.996000289916992,-7.993000030517578 C17.476999282836914,-7.797999858856201 17.836000442504883,-7.658999919891357 18.19099998474121,-7.506999969482422 C21.929000854492188,-5.908999919891357 24.172000885009766,-2.427999973297119 23.631000518798828,1.4529999494552612 C23.219999313354492,4.40500020980835 22.358999252319336,7.271999835968018 20.868999481201172,9.916000366210938 C19.163000106811523,12.942999839782715 16.59000015258789,15.072999954223633 13.826000213623047,17.04800033569336 C10.996000289916992,19.070999145507812 9.052000045776367,21.75200080871582 8.03499984741211,25.104999542236328 C7.025000095367432,28.43199920654297 5.572999954223633,29.549999237060547 2.1110000610351562,29.92799949645996 C1.6260000467300415,29.981000900268555 0.8939999938011169,30.333999633789062 0.7689999938011169,30.711000442504883 C0.1509999930858612,32.58000183105469 -0.3019999861717224,34.50299835205078 -0.8040000200271606,36.37200164794922 C0.8989999890327454,37.22999954223633 1.7829999923706055,36.88199996948242 2.2920000553131104,35.27299880981445 C2.4089999198913574,34.902000427246094 2.5329999923706055,34.52799987792969 2.5950000286102295,34.145999908447266 C2.760999917984009,33.125999450683594 3.322999954223633,32.64400100708008 4.348999977111816,32.37699890136719 C7.429999828338623,31.576000213623047 9.520000457763672,29.57699966430664 10.395999908447266,26.5310001373291 C11.324999809265137,23.301000595092773 13.151000022888184,20.81800079345703 15.87600040435791,18.913999557495117 C18.04400062561035,17.399999618530273 20.027000427246094,15.6899995803833 21.677000045776367,13.585000038146973 C24.211999893188477,10.35099983215332 25.31800079345703,6.551000118255615 26.194000244140625,2.6540000438690186 C27.13599967956543,-1.5329999923706055 25.277999877929688,-6.159999847412109 21.73900032043457,-8.623000144958496 C20.17300033569336,-9.713000297546387 20.172000885009766,-9.713000297546387 20.67099952697754,-11.57800006866455 C21.958999633789062,-16.382999420166016 23.373056411743164,-21.618396759033203 24.368383407592773,-26.435054779052734 C25.21170997619629,-30.52163314819336 22.612661361694336,-34.688114166259766 18.6009578704834,-35.584197998046875 C14.37243938446045,-36.52826690673828 10.683568954467773,-34.158023834228516 9.483325004577637,-30.450342178344727 C9.294331550598145,-29.840078353881836 9.183317184448242,-29.181529998779297 8.99902057647705,-28.55313491821289 C8.763814926147461,-27.83188247680664 8.37444019317627,-27.681148529052734 7.6039862632751465,-27.670055389404297 C6.383586883544922,-27.651296615600586 5.072999954223633,-27.614999771118164 3.8359999656677246,-27.597000122070312 C3.316999912261963,-27.589000701904297 2.7109999656677246,-27.618000030517578 2.2880001068115234,-27.871000289916992 C-1.1510000228881836,-29.929000854492188 -4.519999980926514,-29.72100067138672 -7.520999908447266,-27.135000228881836 C-8.104999542236328,-26.631999969482422 -8.630999565124512,-26.41200065612793 -9.387999534606934,-26.645999908447266 C-13.180000305175781,-27.815000534057617 -17.93199920654297,-25.552000045776367 -19.097000122070312,-20.93899917602539 C-20.493999481201172,-15.402000427246094 -22.025999069213867,-9.899999618530273 -23.5049991607666,-4.383999824523926 C-24.270999908447266,-1.5269999504089355 -24.593000411987305,1.3860000371932983 -24.663000106811523,4.335000038146973 C-24.76099967956543,8.494000434875488 -25.163000106811523,12.602999687194824 -26.215999603271484,16.655000686645508 C-27.058000564575195,19.892000198364258 -26.117000579833984,22.764999389648438 -23.659000396728516,25.011999130249023 C-22.750999450683594,25.841999053955078 -22.437000274658203,26.606000900268555 -22.888999938964844,27.7189998626709 C-23.00200080871582,27.99799919128418 -23.05900001525879,28.301000595092773 -23.12299919128418,28.59600067138672 C-23.472000122070312,30.187000274658203 -22.72100067138672,31.007999420166016 -21.014999389648438,30.892000198364258 C-20.448999404907227,28.78499984741211 -19.881999969482422,26.673999786376953 -19.30900001525879,24.540000915527344 C-19.802000045776367,24.277999877929688 -20.219999313354492,24.05900001525879 -20.63599967956543,23.834999084472656 C-22.445999145507812,22.860000610351562 -23.51099967956543,21.32900047302246 -23.691999435424805,19.30699920654297 C-23.77899932861328,18.340999603271484 -23.62299919128418,17.312999725341797 -23.374000549316406,16.365999221801758 C-22.545000076293945,13.211999893188477 -22.099000930786133,10.015999794006348 -22.023000717163086,6.758999824523926 C-21.945999145507812,3.428999900817871 -21.840999603271484,0.0860000029206276 -21.013999938964844,-3.1549999713897705 C-19.53700065612793,-8.939000129699707 -17.999000549316406,-14.708000183105469 -16.39299964904785,-20.45800018310547 C-15.390000343322754,-24.052000045776367 -11.199999809265137,-25.329999923706055 -8.274999618530273,-23.034000396728516 C-7.984000205993652,-22.805999755859375 -7.683000087738037,-22.593000411987305 -7.288000106811523,-22.299999237060547 C-6.511000156402588,-24.525999069213867 -5.224999904632568,-26.052000045776367 -2.9079999923706055,-26.382999420166016 C-0.5450000166893005,-26.72100067138672 1.1399999856948853,-25.572999954223633 2.427999973297119,-23.7549991607666 C5.736000061035156,-25.7549991607666 6.792307376861572,-25.648332595825195 10.467140197753906,-23.203615188598633z M15.050999641418457,-8.496000289916992 C15.223999977111816,-9.024999618530273 15.375,-9.42300033569336 15.484999656677246,-9.833000183105469 C16.95800018310547,-15.303999900817871 18.577789306640625,-21.014549255371094 19.786148071289062,-26.484783172607422 C19.887826919555664,-26.942506790161133 19.98423194885254,-27.409862518310547 20.003372192382812,-27.87582015991211 C20.074811935424805,-29.611841201782227 18.710695266723633,-31.134567260742188 16.99973487854004,-31.266468048095703 C15.37722110748291,-31.39141082763672 13.951191902160645,-30.259132385253906 13.545368194580078,-28.45305061340332 C12.252702713012695,-22.695083618164062 10.569000244140625,-16.988000869750977 9.027000427246094,-11.220999717712402 C8.940999984741211,-10.899999618530273 8.916000366210938,-10.560999870300293 8.85099983215332,-10.15999984741211 C10.90999984741211,-9.607000350952148 12.897000312805176,-9.074000358581543 15.050999641418457,-8.496000289916992z M1.2280000448226929,-14.381999969482422 C1.225000023841858,-14.383000373840332 1.222000002861023,-14.383999824523926 1.218999981880188,-14.385000228881836 C0.871999979019165,-13.09000015258789 0.5210000276565552,-11.795999526977539 0.17800000309944153,-10.50100040435791 C-0.06599999964237213,-9.581999778747559 -0.35600000619888306,-8.670000076293945 -0.5260000228881836,-7.736999988555908 C-0.8429999947547913,-5.998000144958496 0.09000000357627869,-4.466000080108643 1.684999942779541,-3.9769999980926514 C3.2990000247955322,-3.4820001125335693 4.895999908447266,-4.210999965667725 5.6519999504089355,-5.810999870300293 C5.815999984741211,-6.158999919891357 5.927999973297119,-6.5370001792907715 6.031000137329102,-6.910999774932861 C6.823999881744385,-9.786999702453613 7.616000175476074,-12.663000106811523 8.392000198364258,-15.543999671936035 C8.729000091552734,-16.795000076293945 9.092000007629395,-18.04599952697754 9.329000473022461,-19.31800079345703 C9.628000259399414,-20.93199920654297 8.946000099182129,-22.28700065612793 7.65500020980835,-22.915000915527344 C5.665999889373779,-23.882999420166016 3.630000114440918,-22.993000030517578 2.9570000171661377,-20.767000198364258 C2.319999933242798,-18.656999588012695 1.7999999523162842,-16.511999130249023 1.2280000448226929,-14.381999969482422z M-0.5419999957084656,-14.902999877929688 C-0.026000000536441803,-16.822999954223633 0.5139999985694885,-18.73699951171875 0.9980000257492065,-20.665000915527344 C1.465999960899353,-22.527000427246094 0.4860000014305115,-24.240999221801758 -1.2680000066757202,-24.731000900268555 C-3.0280001163482666,-25.222999572753906 -4.7820000648498535,-24.26300048828125 -5.296000003814697,-22.420000076293945 C-6.35099983215332,-18.631999969482422 -7.368000030517578,-14.833000183105469 -8.357999801635742,-11.027000427246094 C-8.83899974822998,-9.178000450134277 -7.831999778747559,-7.427999973297119 -6.10699987411499,-6.949999809265137 C-4.334000110626221,-6.459000110626221 -2.562999963760376,-7.5 -2.0260000228881836,-9.395999908447266 C-1.50600004196167,-11.225000381469727 -1.034000039100647,-13.067000389099121 -0.5419999957084656,-14.902999877929688z M-15.984000205993652,-15.291000366210938 C-15.984999656677246,-15.291000366210938 -15.987000465393066,-15.291999816894531 -15.98799991607666,-15.291999816894531 C-16.3799991607666,-13.833999633789062 -16.770999908447266,-12.375 -17.163000106811523,-10.916999816894531 C-17.184999465942383,-10.833000183105469 -17.20800018310547,-10.75 -17.22599983215332,-10.664999961853027 C-17.514999389648438,-9.23799991607666 -17.226999282836914,-7.989999771118164 -16.003999710083008,-7.10099983215332 C-14.10099983215332,-5.71999979019165 -11.630000114440918,-6.526000022888184 -10.937000274658203,-8.838000297546387 C-10.031999588012695,-11.854000091552734 -9.255999565124512,-14.907999992370605 -8.432999610900879,-17.947999954223633 C-8.354999542236328,-18.238000869750977 -8.322999954223633,-18.542999267578125 -8.29699993133545,-18.843000411987305 C-8.156000137329102,-20.458999633789062 -9.111000061035156,-21.809999465942383 -10.67300033569336,-22.22100067138672 C-12.46500015258789,-22.691999435424805 -14.175000190734863,-21.708999633789062 -14.765000343322754,-19.788000106811523 C-15.220999717712402,-18.304000854492188 -15.581000328063965,-16.791000366210938 -15.984000205993652,-15.291000366210938z"></path></g></g><g transform="matrix(4.239559173583984,-0.12359980493783951,0.12359980493783951,4.239559173583984,149.44259643554688,341.4404296875)" opacity="1" style="display: block;"><g opacity="1" transform="matrix(1,0,0,1,2.4579999446868896,1.496000051498413)"><path fill="rgb(0,0,0)" fill-opacity="1" d=" M-0.3019999861717224,0.9330000281333923 C-0.7519999742507935,0.7900000214576721 -1.2799999713897705,0.746999979019165 -1.628999948501587,0.47600001096725464 C-1.937000036239624,0.23600000143051147 -2.2090001106262207,-0.2709999978542328 -2.181999921798706,-0.6359999775886536 C-2.1649999618530273,-0.8610000014305115 -1.5240000486373901,-1.246000051498413 -1.215999960899353,-1.2009999752044678 C-0.289000004529953,-1.065999984741211 0.6430000066757202,-0.8299999833106995 1.5080000162124634,-0.4749999940395355 C1.8329999446868896,-0.3409999907016754 1.9800000190734863,0.22699999809265137 2.2079999446868896,0.597000002861023 C1.8320000171661377,0.8130000233650208 1.468999981880188,1.1690000295639038 1.0759999752044678,1.2050000429153442 C0.6359999775886536,1.246000051498413 0.17000000178813934,0.9980000257492065 -0.28600001335144043,0.8759999871253967 C-0.29100000858306885,0.8949999809265137 -0.296999990940094,0.9139999747276306 -0.3019999861717224,0.9330000281333923z"></path></g></g></g></svg>