<svg xmlns:xlink="http://www.w3.org/1999/xlink"  id="a" xmlns="http://www.w3.org/2000/svg" viewBox="0 0 8.14 9" class="fullwidth block"><path d="M.1,7.76h7.96L4.08.75.1,7.76ZM.62,7.46L4.08,1.36l3.46,6.1H.62Z" style="fill:currentColor; stroke-width:0px;"></path><path d="M4.38,4.97c.04.22.16.36.29.36.17,0,.3-.23.3-.53s-.13-.53-.3-.53c-.13,0-.24.14-.29.36v.02l.25.15-.26.15v.02h.01Z" style="fill:currentColor; stroke-width:0px;"></path><path d="M3.19,4.97c.04.22.16.36.29.36.17,0,.3-.23.3-.53s-.13-.53-.3-.53c-.13,0-.24.14-.29.36v.02l.25.15-.26.15v.02h0Z" style="fill:currentColor; stroke-width:0px;"></path><path d="M4.08,6.75c-.8,0-1.46-.65-1.5-1.46h.16v-.22h-.54v.22h.16c.03.93.8,1.68,1.71,1.68s1.68-.75,1.71-1.68h.16v-.22h-.54v.22h.16c-.03.81-.7,1.46-1.5,1.46h.02Z" style="fill:currentColor; stroke-width:0px;"></path></svg>