<svg xmlns="http://www.w3.org/2000/svg" xmlns:xlink="http://www.w3.org/1999/xlink" viewBox="0 0 320 178" width="320" height="178" preserveAspectRatio="xMidYMid meet" style="width: 100%; height: 100%; transform: translate3d(0px, 0px, 0px); content-visibility: visible;"><defs><clipPath id="__lottie_element_85"><rect width="320" height="178" x="0" y="0"></rect></clipPath></defs><g clip-path="url(#__lottie_element_85)"><g transform="matrix(4,0,0,4,34.16551208496094,27.227998733520508)" opacity="1" style="display: block;"><g opacity="1" transform="matrix(1,0,0,1,13.619999885559082,15.484000205993652)"><path fill="rgb(255,252,252)" fill-opacity="1" d=" M12.053000450134277,0 C12.053000450134277,0 -12.053000450134277,-13.916999816894531 -12.053000450134277,-13.916999816894531 C-12.053000450134277,-13.916999816894531 -12.053000450134277,13.916999816894531 -12.053000450134277,13.916999816894531 C-12.053000450134277,13.916999816894531 12.053000450134277,0 12.053000450134277,0 C12.053000450134277,0 -12.053000450134277,-13.916999816894531 -12.053000450134277,-13.916999816894531 C-12.053000450134277,-13.916999816894531 -12.053000450134277,13.916999816894531 -12.053000450134277,13.916999816894531 C-12.053000450134277,13.916999816894531 12.053000450134277,0 12.053000450134277,0z"></path><path stroke-linecap="butt" stroke-linejoin="miter" fill-opacity="0" stroke-miterlimit="10" stroke="rgb(0,0,0)" stroke-opacity="1" stroke-width="0.627" d=" M12.053000450134277,0 C12.053000450134277,0 -12.053000450134277,-13.916999816894531 -12.053000450134277,-13.916999816894531 C-12.053000450134277,-13.916999816894531 -12.053000450134277,13.916999816894531 -12.053000450134277,13.916999816894531 C-12.053000450134277,13.916999816894531 12.053000450134277,0 12.053000450134277,0 C12.053000450134277,0 -12.053000450134277,-13.916999816894531 -12.053000450134277,-13.916999816894531 C-12.053000450134277,-13.916999816894531 -12.053000450134277,13.916999816894531 -12.053000450134277,13.916999816894531 C-12.053000450134277,13.916999816894531 12.053000450134277,0 12.053000450134277,0z"></path></g></g><g transform="matrix(4,0,0,4,79.9207763671875,27.227998733520508)" opacity="1" style="display: block;"><g opacity="1" transform="matrix(1,0,0,1,13.619999885559082,15.484000205993652)"><path fill="rgb(255,252,252)" fill-opacity="1" d=" M12.053000450134277,0 C12.053000450134277,0 -12.053000450134277,-13.916999816894531 -12.053000450134277,-13.916999816894531 C-12.053000450134277,-13.916999816894531 -12.053000450134277,13.916999816894531 -12.053000450134277,13.916999816894531 C-12.053000450134277,13.916999816894531 12.053000450134277,0 12.053000450134277,0 C12.053000450134277,0 -12.053000450134277,-13.916999816894531 -12.053000450134277,-13.916999816894531 C-12.053000450134277,-13.916999816894531 -12.053000450134277,13.916999816894531 -12.053000450134277,13.916999816894531 C-12.053000450134277,13.916999816894531 12.053000450134277,0 12.053000450134277,0z"></path><path stroke-linecap="butt" stroke-linejoin="miter" fill-opacity="0" stroke-miterlimit="10" stroke="rgb(0,0,0)" stroke-opacity="1" stroke-width="0.627" d=" M12.053000450134277,0 C12.053000450134277,0 -12.053000450134277,-13.916999816894531 -12.053000450134277,-13.916999816894531 C-12.053000450134277,-13.916999816894531 -12.053000450134277,13.916999816894531 -12.053000450134277,13.916999816894531 C-12.053000450134277,13.916999816894531 12.053000450134277,0 12.053000450134277,0 C12.053000450134277,0 -12.053000450134277,-13.916999816894531 -12.053000450134277,-13.916999816894531 C-12.053000450134277,-13.916999816894531 -12.053000450134277,13.916999816894531 -12.053000450134277,13.916999816894531 C-12.053000450134277,13.916999816894531 12.053000450134277,0 12.053000450134277,0z"></path></g></g><g transform="matrix(4,0,0,4,122.43059539794922,27.227998733520508)" opacity="1" style="display: block;"><g opacity="1" transform="matrix(1,0,0,1,13.619999885559082,15.484000205993652)"><path fill="rgb(255,252,252)" fill-opacity="1" d=" M12.053000450134277,0 C12.053000450134277,0 -12.053000450134277,-13.916999816894531 -12.053000450134277,-13.916999816894531 C-12.053000450134277,-13.916999816894531 -12.053000450134277,13.916999816894531 -12.053000450134277,13.916999816894531 C-12.053000450134277,13.916999816894531 12.053000450134277,0 12.053000450134277,0 C12.053000450134277,0 -12.053000450134277,-13.916999816894531 -12.053000450134277,-13.916999816894531 C-12.053000450134277,-13.916999816894531 -12.053000450134277,13.916999816894531 -12.053000450134277,13.916999816894531 C-12.053000450134277,13.916999816894531 12.053000450134277,0 12.053000450134277,0z"></path><path stroke-linecap="butt" stroke-linejoin="miter" fill-opacity="0" stroke-miterlimit="10" stroke="rgb(0,0,0)" stroke-opacity="1" stroke-width="0.627" d=" M12.053000450134277,0 C12.053000450134277,0 -12.053000450134277,-13.916999816894531 -12.053000450134277,-13.916999816894531 C-12.053000450134277,-13.916999816894531 -12.053000450134277,13.916999816894531 -12.053000450134277,13.916999816894531 C-12.053000450134277,13.916999816894531 12.053000450134277,0 12.053000450134277,0 C12.053000450134277,0 -12.053000450134277,-13.916999816894531 -12.053000450134277,-13.916999816894531 C-12.053000450134277,-13.916999816894531 -12.053000450134277,13.916999816894531 -12.053000450134277,13.916999816894531 C-12.053000450134277,13.916999816894531 12.053000450134277,0 12.053000450134277,0z"></path></g></g><g transform="matrix(4,0,0,4,156.46363830566406,27.227998733520508)" opacity="1" style="display: block;"><g opacity="1" transform="matrix(1,0,0,1,13.619999885559082,15.484000205993652)"><path fill="rgb(0,0,0)" fill-opacity="1" d=" M12.053000450134277,0 C12.053000450134277,0 -12.053000450134277,-13.916999816894531 -12.053000450134277,-13.916999816894531 C-12.053000450134277,-13.916999816894531 -12.053000450134277,13.916999816894531 -12.053000450134277,13.916999816894531 C-12.053000450134277,13.916999816894531 12.053000450134277,0 12.053000450134277,0 C12.053000450134277,0 -12.053000450134277,-13.916999816894531 -12.053000450134277,-13.916999816894531 C-12.053000450134277,-13.916999816894531 -12.053000450134277,13.916999816894531 -12.053000450134277,13.916999816894531 C-12.053000450134277,13.916999816894531 12.053000450134277,0 12.053000450134277,0z"></path><path stroke-linecap="butt" stroke-linejoin="miter" fill-opacity="0" stroke-miterlimit="10" stroke="rgb(0,0,0)" stroke-opacity="1" stroke-width="0.627" d=" M12.053000450134277,0 C12.053000450134277,0 -12.053000450134277,-13.916999816894531 -12.053000450134277,-13.916999816894531 C-12.053000450134277,-13.916999816894531 -12.053000450134277,13.916999816894531 -12.053000450134277,13.916999816894531 C-12.053000450134277,13.916999816894531 12.053000450134277,0 12.053000450134277,0 C12.053000450134277,0 -12.053000450134277,-13.916999816894531 -12.053000450134277,-13.916999816894531 C-12.053000450134277,-13.916999816894531 -12.053000450134277,13.916999816894531 -12.053000450134277,13.916999816894531 C-12.053000450134277,13.916999816894531 12.053000450134277,0 12.053000450134277,0z"></path></g></g></g></svg>